<svg width="287" height="91" viewBox="0 0 287 91" fill="none" xmlns="http://www.w3.org/2000/svg">
<g clip-path="url(#clip0_17_2)">
<path fill-rule="evenodd" clip-rule="evenodd" d="M38 34.986C47.4338 34.7213 55 26.9908 55 17.493C55 7.99524 47.4338 0.264667 38 0V7.00469C43.5668 7.26567 48 11.8616 48 17.493C48 23.1244 43.5668 27.7203 38 27.9813V34.986Z" fill="white"/>
<path fill-rule="evenodd" clip-rule="evenodd" d="M38 82.7728C51.5349 81.0551 62 69.4979 62 55.4965C62 41.4951 51.5349 29.9379 38 28.2202V35.2971C47.6543 36.9564 55 45.3686 55 55.4965C55 65.6244 47.6543 74.0366 38 75.6959V82.7728Z" fill="white"/>
<path fill-rule="evenodd" clip-rule="evenodd" d="M24 69H34C41.732 69 48 62.732 48 55C48 47.268 41.732 41 34 41H24V48H34C37.866 48 41 51.134 41 55C41 58.866 37.866 62 34 62H24V69Z" fill="white"/>
<path d="M0 75.7H38V82.7778H0V75.7Z" fill="white"/>
<path d="M0 14L0 63H7L7 14H0Z" fill="white"/>
<path d="M32 41H14V48H32V41Z" fill="white"/>
<path d="M0 62H38V68L32.5 69H26H19H0V62Z" fill="white"/>
<path d="M0 0H38.1522L42.0652 2L45 6L38.1522 7H0V0Z" fill="white"/>
<path d="M14 28H43V35L40.7344 35.5L35.75 35H28.5H14V28Z" fill="white"/>
<path d="M14 14H38.5C40.433 14 42 15.567 42 17.5C42 19.433 40.433 21 38.5 21H14V14Z" fill="white"/>
<path d="M96.9564 61H82.2607V65.1905H96.9564V61Z" fill="white"/>
<path d="M85.5576 62.0476L95.616 71.9767L92.3194 74.8449L82.261 65.1905L85.5576 62.0476Z" fill="white"/>
<path d="M102.398 78.7862L92.3401 68.8571L89.0435 71.7253L99.1019 81.6544L102.398 78.7862Z" fill="white"/>
<path d="M97.8164 78.3596L101.929 72.7159L97.9486 70.2248L93.836 75.8685L97.8164 78.3596Z" fill="white"/>
<path d="M102.326 78.8095L105.508 81.5595H99.1445L102.326 78.8095Z" fill="white"/>
<path d="M98.0869 69.9048H103.739V70.4286L100.913 70.6905H99.5H98.3695H98.0869V69.9048Z" fill="white"/>
<path d="M103.701 70.1668L100.644 74.5902L98.0447 70.5073L103.701 70.1668Z" fill="white"/>
<path d="M96.9565 76.7143C96.9565 80.1858 93.1607 83 88.4783 83C83.7958 83 80 80.1858 80 76.7143C80 73.2428 83.7958 70.4286 88.4783 70.4286C93.1607 70.4286 96.9565 73.2428 96.9565 76.7143ZM84.7122 76.7143C84.7122 78.2563 86.3983 79.5064 88.4783 79.5064C90.5582 79.5064 92.2444 78.2563 92.2444 76.7143C92.2444 75.1722 90.5582 73.9221 88.4783 73.9221C86.3983 73.9221 84.7122 75.1722 84.7122 76.7143Z" fill="white"/>
<path d="M75.3359 22.4727H91.6445C93.6367 22.4727 95.3685 22.6875 96.8398 23.1172C98.3242 23.5339 99.5547 24.1133 100.531 24.8555C101.508 25.5977 102.23 26.4831 102.699 27.5117C103.181 28.5273 103.422 29.6276 103.422 30.8125C103.422 32.7526 102.81 34.4518 101.586 35.9102C102.992 36.7435 104.04 37.8242 104.73 39.1523C105.421 40.4805 105.766 41.9909 105.766 43.6836C105.766 45.1029 105.525 46.3854 105.043 47.5312C104.574 48.6771 103.852 49.6602 102.875 50.4805C101.911 51.2878 100.688 51.9128 99.2031 52.3555C97.7318 52.7852 95.9935 53 93.9883 53H75.3359V22.4727ZM94.0273 34.1914C94.5612 34.1914 95.082 34.2109 95.5898 34.25C96.4622 33.4167 96.8984 32.4661 96.8984 31.3984C96.8984 30.2917 96.4622 29.4388 95.5898 28.8398C94.7305 28.2279 93.4674 27.9219 91.8008 27.9219H81.5273V34.1914H94.0273ZM94.1445 47.6094C95.8112 47.6094 97.0742 47.2513 97.9336 46.5352C98.806 45.819 99.2422 44.8099 99.2422 43.5078C99.2422 42.2057 98.806 41.1901 97.9336 40.4609C97.0742 39.7318 95.8112 39.3672 94.1445 39.3672H81.5273V47.6094H94.1445ZM110.902 22.4727H117.094V39.2891C117.094 40.6693 117.283 41.8997 117.66 42.9805C118.038 44.0482 118.598 44.9531 119.34 45.6953C120.095 46.4375 121.026 47.0039 122.133 47.3945C123.24 47.7721 124.529 47.9609 126 47.9609C127.458 47.9609 128.741 47.7721 129.848 47.3945C130.967 47.0039 131.898 46.4375 132.641 45.6953C133.396 44.9531 133.962 44.0482 134.34 42.9805C134.717 41.8997 134.906 40.6693 134.906 39.2891V22.4727H141.098V40.0312C141.098 42.0365 140.759 43.8594 140.082 45.5C139.405 47.1406 138.422 48.5469 137.133 49.7188C135.844 50.8906 134.262 51.7956 132.387 52.4336C130.525 53.0716 128.396 53.3906 126 53.3906C123.604 53.3906 121.469 53.0716 119.594 52.4336C117.732 51.7956 116.156 50.8906 114.867 49.7188C113.578 48.5469 112.595 47.1406 111.918 45.5C111.241 43.8594 110.902 42.0365 110.902 40.0312V22.4727ZM148.676 22.4727H154.867L165.961 33.6055L177.055 22.4727H183.246V53H177.055V31.0469L165.961 41.7305L154.867 31.0469V53H148.676V22.4727ZM191.938 22.4727H208.031C210.375 22.4727 212.406 22.7266 214.125 23.2344C215.844 23.7422 217.27 24.4779 218.402 25.4414C219.535 26.3919 220.375 27.5573 220.922 28.9375C221.482 30.3177 221.762 31.8737 221.762 33.6055C221.762 35.2331 221.488 36.737 220.941 38.1172C220.395 39.4974 219.555 40.6953 218.422 41.7109C217.302 42.7135 215.883 43.5013 214.164 44.0742C212.445 44.6341 210.414 44.9141 208.07 44.9141L198.129 44.8945V53H191.938V22.4727ZM208.188 39.543C209.359 39.543 210.382 39.4062 211.254 39.1328C212.139 38.8464 212.875 38.4492 213.461 37.9414C214.06 37.4206 214.503 36.7956 214.789 36.0664C215.089 35.3242 215.238 34.5039 215.238 33.6055C215.238 31.7956 214.646 30.3893 213.461 29.3867C212.289 28.3711 210.531 27.8633 208.188 27.8633H198.129V39.543H208.188ZM255.102 22.4727H270.629C272.973 22.4727 275.004 22.7201 276.723 23.2148C278.441 23.6966 279.867 24.3997 281 25.3242C282.133 26.2487 282.973 27.375 283.52 28.7031C284.079 30.0312 284.359 31.5352 284.359 33.2148C284.359 34.3477 284.223 35.4284 283.949 36.457C283.676 37.4727 283.253 38.4102 282.68 39.2695C282.12 40.1289 281.41 40.8971 280.551 41.5742C279.691 42.2383 278.682 42.7917 277.523 43.2344L284.164 53H276.586L270.844 44.3281H270.668L261.293 44.3086V53H255.102V22.4727ZM270.785 38.957C271.957 38.957 272.979 38.8203 273.852 38.5469C274.737 38.2734 275.473 37.8893 276.059 37.3945C276.658 36.8997 277.1 36.3008 277.387 35.5977C277.686 34.8815 277.836 34.0872 277.836 33.2148C277.836 31.5091 277.25 30.194 276.078 29.2695C274.906 28.332 273.142 27.8633 270.785 27.8633H261.293V38.957H270.785Z" fill="white"/>
<path d="M111.469 58.5781H133.312V62.9219H116.422V69.3125H130.766V73.3906H116.422V83H111.469V58.5781ZM138.094 58.5781H150.516C152.391 58.5781 154.016 58.776 155.391 59.1719C156.766 59.5573 157.906 60.1198 158.812 60.8594C159.719 61.599 160.391 62.5 160.828 63.5625C161.276 64.625 161.5 65.8281 161.5 67.1719C161.5 68.0781 161.391 68.9427 161.172 69.7656C160.953 70.5781 160.615 71.3281 160.156 72.0156C159.708 72.7031 159.141 73.3177 158.453 73.8594C157.766 74.3906 156.958 74.8333 156.031 75.1875L161.344 83H155.281L150.688 76.0625H150.547L143.047 76.0469V83H138.094V58.5781ZM150.641 71.7656C151.578 71.7656 152.396 71.6562 153.094 71.4375C153.802 71.2188 154.391 70.9115 154.859 70.5156C155.339 70.1198 155.693 69.6406 155.922 69.0781C156.161 68.5052 156.281 67.8698 156.281 67.1719C156.281 65.8073 155.812 64.7552 154.875 64.0156C153.938 63.2656 152.526 62.8906 150.641 62.8906H143.047V71.7656H150.641ZM166.75 58.5781H171.734V83H166.75V58.5781ZM199.281 58.5781H204.234L219.453 66.5469V58.5781H224.406V83H219.453V71.7969L204.234 63.875V83H199.281V58.5781ZM231.312 58.5781H240.266C242.88 58.5781 245.151 58.8594 247.078 59.4219C249.005 59.9844 250.599 60.7917 251.859 61.8438C253.13 62.8854 254.073 64.1562 254.688 65.6562C255.312 67.1458 255.625 68.8229 255.625 70.6875C255.625 72.4583 255.318 74.099 254.703 75.6094C254.089 77.1094 253.151 78.4115 251.891 79.5156C250.63 80.6094 249.036 81.4688 247.109 82.0938C245.182 82.7083 242.911 83.0156 240.297 83.0156L231.312 83V58.5781ZM241.484 78.7188C242.964 78.7188 244.26 78.5312 245.375 78.1562C246.49 77.7708 247.417 77.2292 248.156 76.5312C248.906 75.8333 249.469 74.9896 249.844 74C250.219 73.0104 250.406 71.9062 250.406 70.6875C250.406 69.4896 250.219 68.4115 249.844 67.4531C249.469 66.4844 248.906 65.6667 248.156 65C247.417 64.3229 246.49 63.8021 245.375 63.4375C244.26 63.0729 242.964 62.8906 241.484 62.8906H236.266V78.7188H241.484ZM261.734 75.7344C262.62 76.2344 263.516 76.6875 264.422 77.0938C265.339 77.4896 266.286 77.8281 267.266 78.1094C268.245 78.3802 269.271 78.5885 270.344 78.7344C271.427 78.8802 272.578 78.9531 273.797 78.9531C275.266 78.9531 276.516 78.8594 277.547 78.6719C278.578 78.474 279.417 78.2083 280.062 77.875C280.719 77.5312 281.193 77.125 281.484 76.6562C281.786 76.1875 281.938 75.6771 281.938 75.125C281.938 74.2396 281.568 73.5417 280.828 73.0312C280.089 72.5104 278.948 72.25 277.406 72.25C276.729 72.25 276.016 72.2969 275.266 72.3906C274.516 72.474 273.755 72.5677 272.984 72.6719C272.224 72.776 271.469 72.875 270.719 72.9688C269.979 73.0521 269.281 73.0938 268.625 73.0938C267.531 73.0938 266.479 72.9531 265.469 72.6719C264.469 72.3906 263.578 71.9688 262.797 71.4062C262.026 70.8438 261.411 70.1406 260.953 69.2969C260.495 68.4531 260.266 67.4688 260.266 66.3438C260.266 65.6771 260.354 65.0156 260.531 64.3594C260.719 63.7031 261.01 63.0781 261.406 62.4844C261.812 61.8802 262.333 61.3229 262.969 60.8125C263.604 60.2917 264.37 59.8438 265.266 59.4688C266.172 59.0938 267.214 58.8021 268.391 58.5938C269.578 58.375 270.927 58.2656 272.438 58.2656C273.531 58.2656 274.63 58.3281 275.734 58.4531C276.839 58.5677 277.911 58.7344 278.953 58.9531C280.005 59.1719 281.016 59.4375 281.984 59.75C282.953 60.0521 283.854 60.3906 284.688 60.7656L282.516 64.7656C281.828 64.4635 281.089 64.1875 280.297 63.9375C279.505 63.6771 278.677 63.4531 277.812 63.2656C276.948 63.0781 276.052 62.9323 275.125 62.8281C274.208 62.7135 273.271 62.6562 272.312 62.6562C270.948 62.6562 269.823 62.7552 268.938 62.9531C268.062 63.151 267.365 63.4062 266.844 63.7188C266.323 64.0208 265.958 64.3646 265.75 64.75C265.552 65.125 265.453 65.5 265.453 65.875C265.453 66.6042 265.781 67.2031 266.438 67.6719C267.094 68.1302 268.094 68.3594 269.438 68.3594C269.979 68.3594 270.599 68.3229 271.297 68.25C272.005 68.1667 272.745 68.0781 273.516 67.9844C274.297 67.8906 275.089 67.8073 275.891 67.7344C276.703 67.651 277.49 67.6094 278.25 67.6094C279.688 67.6094 280.958 67.7708 282.062 68.0938C283.177 68.4167 284.109 68.8802 284.859 69.4844C285.609 70.0781 286.177 70.8021 286.562 71.6562C286.948 72.5 287.141 73.4479 287.141 74.5C287.141 75.9062 286.812 77.1615 286.156 78.2656C285.51 79.3594 284.583 80.2865 283.375 81.0469C282.177 81.7969 280.729 82.3698 279.031 82.7656C277.333 83.151 275.443 83.3438 273.359 83.3438C271.984 83.3438 270.641 83.2552 269.328 83.0781C268.016 82.9115 266.755 82.6719 265.547 82.3594C264.349 82.0365 263.203 81.6562 262.109 81.2188C261.026 80.7708 260.021 80.2812 259.094 79.75L261.734 75.7344Z" fill="white"/>
<path d="M250 24H225V30.2222H250V24Z" fill="white"/>
<path d="M250 45.7778H225V52H250V45.7778Z" fill="white"/>
<path d="M247.619 34.5778H227.381V41.4222H247.619V34.5778Z" fill="white"/>
<path d="M195 59H176V64.3333H195V59Z" fill="white"/>
<path d="M195 77.6667H176V83H195V77.6667Z" fill="white"/>
<path d="M193.191 68.0667H177.81V73.9334H193.191V68.0667Z" fill="white"/>
<path d="M38.5 14H19.5C17.567 14 16 15.567 16 17.5C16 19.433 17.567 21 19.5 21H38.5C40.433 21 42 19.433 42 17.5C42 15.567 40.433 14 38.5 14Z" fill="white"/>
<path d="M44.5 28H25.5C23.567 28 22 29.567 22 31.5C22 33.433 23.567 35 25.5 35H44.5C46.433 35 48 33.433 48 31.5C48 29.567 46.433 28 44.5 28Z" fill="white"/>
<path d="M14 79.2328C14 77.3093 15.5593 75.75 17.4828 75.75H37.7834C40.5621 75.75 42.1561 78.9143 40.5021 81.1472C39.8709 81.9992 38.8768 82.5061 37.8166 82.5165L17.517 82.7155C15.5802 82.7345 14 81.1697 14 79.2328Z" fill="white"/>
<path d="M12 65.434C12 63.5374 13.5374 62 15.434 62H39.2849C39.428 62 39.5708 62.0129 39.7117 62.0385C41.7468 62.4085 42.3792 65.016 40.7396 66.2772L39.3067 67.3794C38.782 67.7831 38.1445 68.0134 37.4829 68.0384L15.5635 68.8655C13.6175 68.939 12 67.3813 12 65.434Z" fill="white"/>
<path d="M34.5 41H18.5C16.567 41 15 42.567 15 44.5C15 46.433 16.567 48 18.5 48H34.5C36.433 48 38 46.433 38 44.5C38 42.567 36.433 41 34.5 41Z" fill="white"/>
<path d="M18 45.335C18 43.9383 19.0783 42.7786 20.4713 42.6771L29.7647 42H35.1475C35.4788 42 35.8086 42.0471 36.1267 42.1398L38.5882 42.8571L39.5686 43.2857L40.3797 43.6403C40.4922 43.6894 40.6101 43.725 40.731 43.7461C41.8114 43.935 42.3528 45.1613 41.7646 46.087L41.207 46.9645C40.7972 47.6094 40.0862 48 39.3222 48H20.665C19.1932 48 18 46.8068 18 45.335Z" fill="white"/>
</g>
<defs>
<clipPath id="clip0_17_2">
<rect width="287" height="91" fill="white"/>
</clipPath>
</defs>
</svg>
